<svg width="663" height="663" viewBox="0 0 663 663" fill="none" xmlns="http://www.w3.org/2000/svg">
<rect width="663" height="663" fill="black"/>
<rect width="663" height="663" fill="url(#paint0_linear_4018_18)" fill-opacity="0.44"/>
<g clip-path="url(#clip0_4018_18)">
<path d="M60 62C93.33 62 126.66 62 161 62C172.566 83.9751 172.566 83.9751 177.739 94.3126C178.123 95.078 178.506 95.8433 178.901 96.6319C179.299 97.4257 179.696 98.2196 180.106 99.0374C180.973 100.766 181.84 102.494 182.708 104.222C185.06 108.909 187.411 113.598 189.76 118.287C191.783 122.323 193.807 126.358 195.831 130.393C203.062 144.808 210.288 159.226 217.512 173.645C218.082 174.783 218.652 175.921 219.24 177.094C230.265 199.101 241.288 221.109 252.307 243.119C255.097 248.692 257.887 254.265 260.677 259.838C260.985 260.454 261.293 261.07 261.611 261.704C271.629 281.717 281.66 301.724 291.696 321.727C302.324 342.909 312.939 364.097 323.542 385.29C329.317 396.833 335.097 408.372 340.891 419.905C345.816 429.709 350.731 439.519 355.632 449.336C358.133 454.346 360.639 459.352 363.16 464.352C365.464 468.925 367.754 473.505 370.033 478.09C370.861 479.752 371.695 481.41 372.535 483.065C373.672 485.309 374.79 487.562 375.903 489.818C376.403 490.787 376.403 490.787 376.913 491.776C378.928 495.932 379.235 498.555 378 503C377.133 505.235 377.133 505.235 376.071 507.359C375.669 508.174 375.266 508.988 374.852 509.828C374.41 510.702 373.967 511.577 373.512 512.478C373.047 513.413 372.582 514.349 372.103 515.313C370.567 518.396 369.02 521.474 367.473 524.551C366.402 526.692 365.332 528.833 364.263 530.975C362.022 535.457 359.777 539.936 357.527 544.413C354.637 550.163 351.761 555.92 348.888 561.678C346.682 566.097 344.469 570.514 342.256 574.929C341.192 577.052 340.13 579.175 339.07 581.299C337.592 584.259 336.106 587.214 334.617 590.169C334.177 591.054 333.737 591.939 333.284 592.85C332.879 593.65 332.473 594.451 332.056 595.276C331.705 595.975 331.354 596.674 330.993 597.394C330 599 330 599 328 600C302.447 548.929 276.896 497.857 251.349 446.783C250.971 446.028 250.593 445.272 250.204 444.494C241.994 428.08 233.785 411.666 225.575 395.252C221.549 387.204 217.524 379.155 213.498 371.106C213.097 370.305 212.697 369.504 212.284 368.679C199.288 342.695 186.289 316.712 173.289 290.73C159.934 264.04 146.583 237.35 133.235 210.657C131.351 206.891 129.468 203.125 127.585 199.359C127.029 198.247 127.029 198.247 126.461 197.113C120.483 185.159 114.502 173.205 108.519 161.253C102.512 149.25 96.5079 137.246 90.5065 125.24C86.9364 118.098 83.3641 110.958 79.7886 103.819C77.1258 98.5016 74.4672 93.1823 71.8102 87.8621C70.7295 85.6999 69.6474 83.5384 68.5639 81.3776C67.1007 78.4592 65.6425 75.5384 64.1855 72.617C63.7555 71.7623 63.3255 70.9077 62.8825 70.0271C62.4984 69.2543 62.1142 68.4815 61.7184 67.6852C61.384 67.0167 61.0496 66.3482 60.705 65.6594C60 64 60 64 60 62Z" fill="#FFFEFE"/>
<path d="M513.217 61.8756C514.558 61.881 514.558 61.881 515.926 61.8865C516.862 61.8864 517.799 61.8862 518.764 61.8861C521.875 61.8868 524.986 61.8946 528.098 61.9024C530.249 61.9042 532.399 61.9057 534.55 61.9067C540.224 61.9105 545.897 61.9203 551.571 61.9314C557.355 61.9416 563.139 61.9462 568.924 61.9512C580.283 61.9619 591.641 61.979 603 62C601.539 66.8005 599.536 71.1959 597.276 75.6599C596.716 76.7763 596.716 76.7763 596.146 77.9151C594.915 80.3711 593.678 82.8242 592.441 85.2774C591.573 87.0071 590.706 88.7371 589.839 90.4672C587.55 95.032 585.256 99.5945 582.961 104.156C578.887 112.257 574.819 120.36 570.754 128.465C570.315 129.34 569.876 130.215 569.423 131.117C564.227 141.478 559.099 151.862 554.148 162.343C549.962 171.165 545.593 179.894 541.219 188.625C540.63 189.801 540.63 189.801 540.029 191C536.778 197.488 533.522 203.973 530.266 210.458C527.435 216.096 524.607 221.735 521.781 227.375C521.388 228.159 520.995 228.944 520.59 229.752C516.146 238.63 511.746 247.524 507.5 256.5C502.875 266.277 498.063 275.955 493.219 285.625C492.826 286.408 492.434 287.192 492.03 287.999C488.779 294.487 485.522 300.972 482.266 307.458C479.435 313.096 476.607 318.735 473.781 324.375C473.192 325.552 473.192 325.552 472.59 326.753C468.157 335.608 463.769 344.478 459.535 353.43C454.799 363.444 449.864 373.354 444.902 383.258C444.499 384.063 444.095 384.869 443.679 385.699C440.768 391.509 437.853 397.317 434.937 403.125C431.987 409.002 429.038 414.88 426.092 420.76C424.925 423.088 423.755 425.414 422.586 427.741C421.873 429.162 421.161 430.583 420.449 432.004C420.127 432.642 419.806 433.28 419.475 433.937C417.823 437.24 416.313 440.548 415 444C414.34 444 413.68 444 413 444C406.422 431.078 399.867 418.143 393.339 405.196C390.307 399.184 387.268 393.176 384.211 387.177C381.262 381.39 378.335 375.592 375.419 369.788C374.303 367.573 373.179 365.362 372.048 363.154C370.468 360.065 368.913 356.965 367.363 353.861C366.888 352.947 366.413 352.034 365.924 351.093C362.849 344.841 362.849 344.841 363.602 340.644C364.294 339.335 364.294 339.335 365 338C365.481 336.934 365.481 336.934 365.972 335.846C366.313 335.184 366.654 334.521 367.005 333.839C367.398 333.069 367.792 332.299 368.197 331.506C368.623 330.683 369.049 329.86 369.488 329.012C369.939 328.134 370.389 327.255 370.853 326.35C372.335 323.461 373.824 320.574 375.312 317.688C376.357 315.654 377.401 313.62 378.445 311.586C380.589 307.411 382.734 303.237 384.881 299.064C389.008 291.044 393.118 283.015 397.227 274.986C398.511 272.479 399.795 269.972 401.079 267.466C407.583 254.774 414.074 242.075 420.562 229.375C428.102 214.617 435.655 199.866 443.221 185.121C449.484 172.914 455.735 160.7 461.978 148.481C465.837 140.929 469.697 133.377 473.556 125.825C474.521 123.936 475.486 122.048 476.452 120.159C479.291 114.603 482.131 109.047 484.974 103.492C485.845 101.789 486.716 100.084 487.587 98.3802C492.197 89.3588 496.839 80.3554 501.543 71.3828C501.974 70.5577 502.405 69.7327 502.85 68.8826C503.248 68.1261 503.645 67.3697 504.055 66.5904C504.407 65.9197 504.76 65.2491 505.122 64.5582C507.087 61.0701 509.449 61.882 513.217 61.8756Z" fill="#FFFEFE"/>
</g>
<defs>
<linearGradient id="paint0_linear_4018_18" x1="331.5" y1="0" x2="331.5" y2="663" gradientUnits="userSpaceOnUse">
<stop offset="0.394231" stop-color="#FF4205" stop-opacity="0"/>
<stop offset="1" stop-color="#FF4205"/>
</linearGradient>
<clipPath id="clip0_4018_18">
<rect width="543" height="538" fill="white" transform="translate(60 62)"/>
</clipPath>
</defs>
</svg>
